<svg width="60" height="50" viewBox="0 0 60 50" fill="none" xmlns="http://www.w3.org/2000/svg">
<path d="M32.4471 0H33.6254L34.1692 0.321888L36.0725 2.03863L37.3414 3.11159L38.8822 4.50644L39.8792 5.36481L41.7825 7.08155L42.7795 7.93991L44.5015 9.44206L45.9517 10.7296L49.3958 13.7339L50.8459 15.0215L52.568 16.5236L54.3807 18.133L56.1027 19.6352L57.7341 21.03L59.4562 22.5322L60 23.0687L59.9094 23.8197L59.3656 24.6781L58.9124 25.3219L58.006 26.073L57.5529 25.9657L55.9214 24.5708L54.0181 22.8541L52.3867 21.4592L52.2054 21.3519V40.9871L50.3021 42.2747L48.2175 43.3476L45.9517 44.0987L43.9577 44.4206H42.7795L41.2387 44.206L39.8792 43.7768L38.3384 42.9185L37.432 42.1674L36.7976 41.309L36.2538 40.2361L35.9819 39.0558V37.5536L36.2538 36.4807L36.8882 35.3004L37.8852 34.4421L38.7009 34.0129H40.0604L40.9668 34.4421L41.4199 34.9785L40.7855 34.8712H40.0604L39.1541 35.3004L38.6103 35.8369L38.0665 37.1245L37.9758 37.6609V38.7339L38.2477 39.8069L38.7915 40.7725L39.6979 41.6309L40.7855 42.1674L41.4199 42.382L42.145 42.4893H43.5045L44.7734 42.2747L46.1329 41.7382L47.2205 40.9871L47.855 40.1288L48.2175 39.2704L48.3988 38.6266L48.4894 37.6609V18.133L41.9637 12.3391L40.2417 10.8369L38.3384 9.12017L36.6163 7.61803L35.4381 6.54506L33.2628 4.61373L32.9003 4.72103L31.3595 6.00858L24.4713 12.0172L22.8399 13.412L21.1178 14.9142L20.7553 15.1288L20.6647 7.18884H17.5831L17.4924 30.2575L16.858 30.6867L14.3202 32.1888L13.9577 32.2961V21.3519L12.4169 22.6395L10.6949 24.1416L9.06344 25.5365L8.429 26.073L7.97583 25.9657L7.06949 25.1073L6.34441 24.0343L6.16314 23.6052V22.9614L7.06949 22.103L8.61027 20.8155L10.3323 19.3133L11.6012 18.2403L13.2326 16.8455L13.8671 16.309L13.9577 3.11159H24.1088L24.1994 6.75966L24.29 6.97425L25.9214 5.5794L27.7341 3.96996L28.7311 3.11159L30.3625 1.71674L32.0846 0.214592L32.4471 0Z" fill="#F26018"/>
<path d="M33.5347 30.9013H36.5257L38.0665 31.2232L39.6073 31.867L40.8761 32.8326L41.148 33.2618L40.3323 33.0472H38.6103L37.7039 33.3691L36.7976 34.0129L36.0725 34.764L35.3474 36.0515L34.9849 37.5537V38.7339L35.3474 40.4506L36.0725 41.9528L36.8882 43.0258L38.2477 44.0987L39.6073 44.8498L41.4199 45.3863L42.2356 45.4936H43.9577L45.9517 45.1717L47.855 44.5279L49.6677 43.6695L51.2085 42.7039L52.6586 41.5236L54.0181 40.1288L55.0151 38.9485L56.1027 37.2318L57.0997 35.3004L58.0967 32.8326L58.6405 31.1159H58.7311L58.6405 32.4034L58.1873 34.9785L57.3716 37.8755L56.7372 39.485L55.9215 41.309L54.8338 43.1331L53.7462 44.6352L53.1118 45.3863L52.1148 46.3519L50.8459 47.4249L49.3958 48.2833L47.6737 49.0343L45.3172 49.6781L43.2326 50H40.1511L38.5196 49.6781L36.9789 49.1416L35.2568 48.176L34.1692 47.2103L33.2628 46.2446L32.3565 44.7425L31.9033 43.5622L31.5408 42.0601L31.4502 41.4163V38.6266L31.9033 36.9099L32.4471 35.7296L33.1722 34.6567L32.0846 34.9785L29.8187 36.0515L27.3716 37.5537L25.1964 39.0558L22.6586 40.6652L21.2085 41.5236L19.577 42.382L17.6737 43.1331L15.861 43.6695L13.9577 43.9914L12.7795 44.0987H11.148L8.97281 43.8841L6.61631 43.3476L4.98489 42.8112L3.17221 41.9528L1.72205 40.9871L0.81571 40.1288L0 39.2704L0.181269 39.1631L2.17523 39.8069L4.53172 40.2361L5.8006 40.3434H8.1571L10.423 40.1288L12.5982 39.6996L15.0453 38.9485L18.0363 37.7682L20.8459 36.3734L24.0181 34.6567L26.284 33.4764L28.7311 32.2961L30.7251 31.5451L32.719 31.0086L33.5347 30.9013Z" fill="#114B5F"/>
<path d="M33.5347 25.7511H35.2568L37.432 26.073L39.1541 26.6094L40.8761 27.5751L41.8731 28.4335L42.7795 29.3991L43.6858 30.5794L44.4109 32.0815L44.7734 33.3691L44.864 34.1202V35.4077L44.5015 37.3391L43.8671 38.8412L43.4139 39.485H43.2326L43.3233 38.0901V34.9785L42.9607 33.5837L42.2356 32.4034L41.4199 31.5451L40.1511 30.6867L38.7915 30.0429L37.7039 29.721L36.435 29.5064H34.0786L32.1752 29.8283L30.2719 30.3648L27.6435 31.4378L22.568 34.0129L19.9396 35.1931L16.9486 36.3734L13.5045 37.4463L10.0604 38.1974L8.429 38.412H3.1722L2.44713 38.3047L2.35649 38.0901L5.61933 37.4463L8.51964 36.588L11.7825 35.3004L13.5952 34.4421L16.2236 33.0472L19.6677 31.0086L21.3897 29.9356L23.9275 28.5408L27.0997 27.1459L29.4562 26.3948L31.4502 25.9657L33.5347 25.7511Z" fill="#F26018"/>
<path d="M29.0937 18.9914H32.8097V23.2833L32.719 23.3906L29.0937 23.6052V18.9914Z" fill="#F47B3E"/>
<path d="M33.3535 18.9914H37.0695V23.6052L35.4381 23.4979L33.6254 23.3906L33.3535 23.2833V18.9914Z" fill="#F47B3E"/>
<path d="M36.3444 13.8412H37.0695V18.3476H33.4441L33.3535 18.2403V14.0558L36.3444 13.8412Z" fill="#F47B3E"/>
<path d="M29.0937 13.8412L31.6314 13.9485L32.8097 14.0558V18.3476H29.0937V13.8412Z" fill="#F47B3E"/>
</svg>
